<svg width="44" height="44" viewBox="0 0 44 44" fill="none" xmlns="http://www.w3.org/2000/svg">
<g clip-path="url(#clip0_62_79)">
<path d="M40.6381 12.6053L36.6455 9.94466C35.903 7.59583 34.3443 5.59035 32.2514 4.29114C30.1585 2.99194 27.6697 2.48483 25.2353 2.86159C22.8009 3.23835 20.5818 4.47408 18.9795 6.34517C17.3772 8.21626 16.4977 10.5991 16.5 13.0625V16.017L0.300787 36.2656C0.138836 36.4679 0.0373379 36.7118 0.0079923 36.9693C-0.0213533 37.2267 0.0226478 37.4872 0.134924 37.7207C0.247201 37.9543 0.423182 38.1513 0.642586 38.2892C0.861989 38.4271 1.11588 38.5001 1.37501 38.5H19.25C23.9892 38.495 28.5329 36.6101 31.884 33.259C35.2351 29.9078 37.12 25.3642 37.125 20.625V17.2356L40.6381 14.8947C40.8267 14.7691 40.9814 14.599 41.0884 14.3993C41.1954 14.1996 41.2513 13.9765 41.2513 13.75C41.2513 13.5234 41.1954 13.3004 41.0884 13.1007C40.9814 12.901 40.8267 12.7308 40.6381 12.6053ZM18.932 24.255L12.057 32.505C11.8236 32.7853 11.4884 32.9615 11.1252 32.9947C10.7619 33.0279 10.4003 32.9154 10.12 32.682C9.83966 32.4486 9.66352 32.1134 9.63032 31.7501C9.59712 31.3869 9.70958 31.0253 9.94298 30.745L16.818 22.495C16.9335 22.3562 17.0753 22.2415 17.2352 22.1574C17.3951 22.0734 17.57 22.0217 17.7498 22.0053C17.9297 21.9888 18.111 22.008 18.2835 22.0616C18.456 22.1153 18.6162 22.2024 18.755 22.3179C18.8938 22.4335 19.0085 22.5753 19.0925 22.7352C19.1765 22.895 19.2283 23.0699 19.2447 23.2498C19.2611 23.4297 19.242 23.611 19.1883 23.7835C19.1347 23.9559 19.0476 24.1162 18.932 24.255ZM28.1875 13.75C27.7796 13.75 27.3808 13.629 27.0416 13.4024C26.7025 13.1757 26.4381 12.8536 26.282 12.4768C26.1259 12.0999 26.0851 11.6852 26.1646 11.2851C26.2442 10.885 26.4407 10.5175 26.7291 10.2291C27.0175 9.94062 27.385 9.74418 27.7851 9.6646C28.1852 9.58502 28.5999 9.62586 28.9768 9.78197C29.3537 9.93807 29.6758 10.2024 29.9024 10.5416C30.129 10.8808 30.25 11.2795 30.25 11.6875C30.25 12.2345 30.0327 12.7591 29.6459 13.1459C29.2591 13.5327 28.7345 13.75 28.1875 13.75Z" fill="#B8FF43"/>
</g>
<defs>
<clipPath id="clip0_62_79">
<rect width="44" height="44" fill="white"/>
</clipPath>
</defs>
</svg>
