<svg width="44" height="44" viewBox="0 0 44 44" fill="none" xmlns="http://www.w3.org/2000/svg">
<path d="M24.6434 3.068C24.4739 2.92707 24.273 2.82896 24.0577 2.78195C23.8423 2.73493 23.6188 2.74038 23.406 2.79784C23.1932 2.8553 22.9973 2.96308 22.8349 3.1121C22.6724 3.26112 22.5482 3.447 22.4727 3.65409L18.6914 14.0371L14.5389 10.0135C14.3995 9.87821 14.2329 9.77404 14.0503 9.70782C13.8676 9.6416 13.673 9.61483 13.4793 9.62928C13.2856 9.64374 13.0971 9.69908 12.9263 9.79167C12.7555 9.88425 12.6063 10.012 12.4884 10.1664C8.76563 15.0442 6.875 19.9513 6.875 24.75C6.875 28.7614 8.46852 32.6085 11.305 35.445C14.1415 38.2815 17.9886 39.875 22 39.875C26.0114 39.875 29.8585 38.2815 32.695 35.445C35.5315 32.6085 37.125 28.7614 37.125 24.75C37.125 14.5321 28.3955 6.18753 24.6434 3.068ZM31.6061 26.3553C31.2496 28.3469 30.2914 30.1813 28.8606 31.6118C27.4299 33.0423 25.5952 34 23.6036 34.3561C23.5281 34.3691 23.4516 34.3754 23.375 34.375C23.0301 34.3749 22.6978 34.2452 22.4441 34.0116C22.1903 33.778 22.0336 33.4576 22.0051 33.1139C21.9765 32.7701 22.0782 32.4282 22.2899 32.156C22.5016 31.8837 22.808 31.7009 23.1481 31.6439C25.9961 31.1644 28.4127 28.7478 28.8956 25.8947C28.9567 25.5351 29.1582 25.2144 29.4557 25.0033C29.7532 24.7921 30.1224 24.7079 30.482 24.7689C30.8417 24.83 31.1624 25.0315 31.3735 25.329C31.5846 25.6265 31.6689 25.9957 31.6078 26.3553H31.6061Z" fill="#B8FF43"/>
</svg>
