<svg width="44" height="44" viewBox="0 0 44 44" fill="none" xmlns="http://www.w3.org/2000/svg">
<path d="M27.2697 33.7631L21.7697 42.0131C21.6695 42.1634 21.5406 42.2926 21.3905 42.3931C21.2404 42.4936 21.072 42.5636 20.8948 42.599C20.537 42.6706 20.1655 42.5971 19.8619 42.3947C19.5583 42.1923 19.3475 41.8776 19.276 41.5198C19.2044 41.162 19.2779 40.7905 19.4803 40.4869L24.9803 32.2369C25.1827 31.9333 25.4974 31.7225 25.8552 31.651C26.213 31.5794 26.5845 31.6529 26.8881 31.8553C27.1917 32.0577 27.4025 32.3724 27.474 32.7302C27.5456 33.088 27.4721 33.4595 27.2697 33.7631ZM39.8527 15.0477C39.6575 11.7101 38.1901 8.57441 35.7525 6.28626C33.3149 3.99811 30.0928 2.73169 26.7496 2.74777C23.4064 2.76385 20.1966 4.06121 17.7812 6.3727C15.3657 8.68419 13.9285 11.8338 13.7655 15.1731C13.7454 15.5295 13.5906 15.8649 13.3324 16.1113C13.0742 16.3577 12.7319 16.4966 12.375 16.5H12.2719C11.9089 16.4676 11.5729 16.2948 11.3354 16.0184C11.0978 15.742 10.9775 15.3839 11 15.0202C11.0478 14.0641 11.1818 13.1144 11.4005 12.1825C11.4287 12.0655 11.4257 11.9431 11.3918 11.8276C11.3578 11.7122 11.2942 11.6076 11.2072 11.5244C11.1202 11.4412 11.0129 11.3824 10.896 11.3537C10.7791 11.325 10.6567 11.3275 10.5411 11.3609C8.67984 11.9108 7.04768 13.0507 5.89047 14.6087C4.73325 16.1667 4.11365 18.0586 4.125 19.9994C4.15938 24.9339 8.27063 28.875 13.2069 28.875H19.4305L15.3553 34.9869C15.1529 35.2905 15.0794 35.662 15.151 36.0198C15.2225 36.3776 15.4333 36.6923 15.7369 36.8947C16.0405 37.0971 16.412 37.1706 16.7698 37.099C17.1276 37.0275 17.4423 36.8167 17.6447 36.5131L22.7356 28.875H26.8125C28.5917 28.873 30.3518 28.508 31.9851 27.8022C33.6184 27.0964 35.0904 26.0647 36.3111 24.7703C37.5318 23.4759 38.4756 21.946 39.0845 20.2742C39.6935 18.6024 39.9549 16.824 39.8527 15.0477Z" fill="#B8FF43"/>
</svg>
