<svg width="44" height="44" viewBox="0 0 44 44" fill="none" xmlns="http://www.w3.org/2000/svg">
<path d="M26.8125 28.875H22.7786L20.3036 33H24.75C24.9934 32.9999 25.2325 33.0645 25.4428 33.1871C25.6531 33.3096 25.8271 33.4859 25.947 33.6977C26.0669 33.9096 26.1285 34.1494 26.1253 34.3928C26.1221 34.6363 26.0544 34.8745 25.9291 35.0831L21.8041 41.9581C21.7111 42.113 21.5885 42.248 21.4433 42.3554C21.2982 42.4629 21.1332 42.5407 20.958 42.5844C20.7828 42.6282 20.6006 42.637 20.422 42.6103C20.2433 42.5836 20.0717 42.5221 19.9169 42.4291C19.762 42.3361 19.627 42.2135 19.5196 42.0683C19.4121 41.9232 19.3343 41.7582 19.2906 41.583C19.2468 41.4078 19.238 41.2256 19.2647 41.047C19.2914 40.8684 19.3529 40.6967 19.4459 40.5419L22.3214 35.75H17.875C17.6316 35.7501 17.3925 35.6855 17.1822 35.5629C16.9719 35.4404 16.7979 35.2641 16.6779 35.0523C16.558 34.8405 16.4965 34.6006 16.4997 34.3572C16.5028 34.1137 16.5706 33.8755 16.6959 33.6669L19.5714 28.875H13.212C8.27062 28.875 4.15937 24.9339 4.12499 19.9994C4.11386 18.0582 4.73396 16.166 5.89183 14.6079C7.04971 13.0498 8.68263 11.9102 10.5445 11.3609C10.6601 11.3275 10.7825 11.325 10.8994 11.3537C11.0163 11.3824 11.1236 11.4412 11.2106 11.5244C11.2976 11.6076 11.3613 11.7122 11.3952 11.8276C11.4291 11.9431 11.4321 12.0655 11.4039 12.1825C11.1841 13.1143 11.0489 14.064 11 15.0202C10.9775 15.3842 11.0981 15.7425 11.336 16.019C11.5739 16.2954 11.9103 16.468 12.2736 16.5H12.3767C12.7333 16.4962 13.0751 16.357 13.333 16.1107C13.5908 15.8643 13.7454 15.5292 13.7655 15.1731C13.8906 12.6199 14.7621 10.1595 16.272 8.09683C17.782 6.03414 19.8639 4.45982 22.2599 3.56894C24.656 2.67806 27.2607 2.50978 29.7514 3.08496C32.2422 3.66013 34.5094 4.95348 36.2722 6.80474C38.035 8.656 39.2158 10.9838 39.6684 13.4997C40.121 16.0156 39.8255 18.609 38.8184 20.9585C37.8114 23.3081 36.1371 25.3105 34.003 26.7177C31.8689 28.1249 29.3688 28.875 26.8125 28.875Z" fill="#B8FF43"/>
</svg>
