<svg width="44" height="44" viewBox="0 0 44 44" fill="none" xmlns="http://www.w3.org/2000/svg">
<path d="M37.125 6.875H6.875C6.14565 6.875 5.44618 7.16473 4.93046 7.68046C4.41473 8.19618 4.125 8.89565 4.125 9.625V34.375C4.125 35.1043 4.41473 35.8038 4.93046 36.3195C5.44618 36.8353 6.14565 37.125 6.875 37.125H37.125C37.8543 37.125 38.5538 36.8353 39.0695 36.3195C39.5853 35.8038 39.875 35.1043 39.875 34.375V9.625C39.875 8.89565 39.5853 8.19618 39.0695 7.68046C38.5538 7.16473 37.8543 6.875 37.125 6.875ZM33.6153 30.1056C33.4916 30.1675 30.5405 31.625 27.5 31.625C24.4252 31.625 22.8095 30.8172 21.3847 30.1056C20.0647 29.4456 18.9252 28.875 16.5 28.875C14.1213 28.875 11.6377 30.0936 11.6136 30.1056C11.452 30.1863 11.2761 30.2344 11.0959 30.2471C10.9157 30.2598 10.7348 30.2369 10.5634 30.1797C10.3921 30.1224 10.2337 30.032 10.0973 29.9136C9.96094 29.7952 9.84921 29.6511 9.76852 29.4895C9.60555 29.1631 9.57892 28.7853 9.69447 28.4393C9.81003 28.0933 10.0583 27.8073 10.3847 27.6444C10.5084 27.5825 13.4595 26.125 16.5 26.125C19.5748 26.125 21.1905 26.9328 22.6153 27.6444C23.9353 28.3044 25.0748 28.875 27.5 28.875C29.8787 28.875 32.3623 27.6564 32.3864 27.6444C32.7128 27.4814 33.0905 27.4548 33.4366 27.5703C33.7826 27.6859 34.0685 27.9342 34.2315 28.2605C34.3944 28.5869 34.4211 28.9647 34.3055 29.3107C34.19 29.6567 33.9417 29.9427 33.6153 30.1056ZM33.6153 23.2306C33.4916 23.2925 30.5405 24.75 27.5 24.75C24.4252 24.75 22.8095 23.9422 21.3847 23.2306C20.0647 22.5706 18.9252 22 16.5 22C14.1213 22 11.6377 23.2186 11.6136 23.2306C11.2872 23.3936 10.9095 23.4202 10.5634 23.3047C10.2174 23.1891 9.93148 22.9408 9.76852 22.6145C9.60555 22.2881 9.57892 21.9103 9.69447 21.5643C9.81003 21.2183 10.0583 20.9323 10.3847 20.7694C10.5084 20.7075 13.4595 19.25 16.5 19.25C19.5748 19.25 21.1905 20.0578 22.6153 20.7694C23.9353 21.4294 25.0748 22 27.5 22C29.8787 22 32.3623 20.7814 32.3864 20.7694C32.7128 20.6064 33.0905 20.5798 33.4366 20.6953C33.7826 20.8109 34.0685 21.0592 34.2315 21.3855C34.3944 21.7119 34.4211 22.0897 34.3055 22.4357C34.19 22.7817 33.9417 23.0677 33.6153 23.2306ZM33.6153 16.3556C33.4916 16.4175 30.5405 17.875 27.5 17.875C24.4252 17.875 22.8095 17.0672 21.3847 16.3556C20.0647 15.6956 18.9252 15.125 16.5 15.125C14.1213 15.125 11.6377 16.3436 11.6136 16.3556C11.2872 16.5186 10.9095 16.5452 10.5634 16.4297C10.2174 16.3141 9.93148 16.0658 9.76852 15.7395C9.60555 15.4131 9.57892 15.0353 9.69447 14.6893C9.81003 14.3433 10.0583 14.0573 10.3847 13.8944C10.5084 13.8325 13.4595 12.375 16.5 12.375C19.5748 12.375 21.1905 13.1828 22.6153 13.8944C23.9353 14.5544 25.0748 15.125 27.5 15.125C29.8787 15.125 32.3623 13.9064 32.3864 13.8944C32.7128 13.7314 33.0905 13.7048 33.4366 13.8203C33.7826 13.9359 34.0685 14.1842 34.2315 14.5105C34.3944 14.8369 34.4211 15.2147 34.3055 15.5607C34.19 15.9067 33.9417 16.1927 33.6153 16.3556Z" fill="#B8FF43"/>
</svg>
